<svg version="1.0" xmlns="http://www.w3.org/2000/svg" width="512.000000pt" height="512.000000pt" viewBox="0 0 512.000000 512.000000" preserveAspectRatio="xMidYMid meet">
	<title>Telegraph icon</title>
	<g transform="translate(0.000000,512.000000) scale(0.100000,-0.100000)" fill="#000000" stroke="none">
		<path d="M1280 3835 l-1275 -1275 1278 -1278 1277 -1277 1277 1277 1278 1278
		-1275 1275 c-701 701 -1277 1275 -1280 1275 -3 0 -579 -574 -1280 -1275z
		m2010 -103 c117 -38 207 -106 255 -193 28 -51 30 -61 30 -164 0 -100 -3 -116
		-29 -172 -34 -74 -90 -130 -173 -171 -65 -33 -180 -62 -245 -62 -24 0 -60 -3
		-80 -6 l-38 -7 0 -562 0 -563 48 13 c69 18 146 51 194 81 54 34 158 133 193
		184 24 35 29 38 51 28 28 -13 28 -13 -23 -138 -134 -327 -375 -547 -680 -622
		-121 -29 -327 -30 -463 -1 -199 43 -343 116 -466 238 -171 170 -248 374 -248
		660 0 157 12 220 70 343 85 184 263 361 470 465 38 19 54 23 63 14 17 -17 15
		-23 -41 -95 -104 -136 -133 -242 -125 -457 4 -91 13 -170 27 -225 24 -97 84
		-229 129 -280 l31 -35 20 25 c34 43 40 88 40 317 l0 222 258 185 c244 175 258
		183 275 167 16 -16 16 -20 -15 -76 l-33 -60 -5 -200 -6 -200 -33 -63 c-57
		-105 -209 -230 -390 -320 l-73 -36 28 -23 c43 -35 160 -90 229 -109 71 -18
		277 -30 358 -20 l57 7 0 574 0 574 -32 5 c-18 3 -67 10 -108 16 -41 6 -185 40
		-320 75 -135 35 -285 71 -334 80 -249 43 -451 -9 -544 -139 -40 -56 -54 -106
		-61 -211 -6 -83 -8 -90 -28 -93 -19 -3 -24 5 -38 50 -57 193 -40 384 51 559
		72 138 212 254 367 306 76 25 94 27 247 28 188 0 221 -6 535 -91 370 -100 544
		-110 585 -35 15 28 12 97 -5 130 -8 16 -29 36 -48 44 -28 14 -33 21 -29 42 5
		27 12 27 102 -3z"></path>
	</g>
	<style>
		@media (prefers-color-scheme: dark) {
			path { fill: #FFFFFF; }
		}
	</style>
</svg>
